<svg xmlns="http://www.w3.org/2000/svg" viewBox="0 0 300 300"><path d="M150.213.435l-5.47 18.802-6.837 48.854 2.704 2.23c.077.064.153.132.226.2 8.982 8.409 17.75 17.067 26.141 26.12L156 19.132 150.213.435zM92.35 88.634l3.688 11.337 13.187 31.024-69.05 6.329-18.607 3.812 18.583 5.44 70.529 13.23-19.154 20.671-9.76 11.864 13.169-3.443 34.216-12.808 15.001 105.988 6.06 17.488 5.593-17.488 14.116-105.914 29.765 12.549 8.387 2.444c-5.812-9.962-12.1-19.655-18.773-29.1l-1.232-1.485.157-.03c-11.891-16.683-24.975-32.59-38.754-47.842a356.268 356.268 0 00-15.595-15.815l-3.149 22.49-28.27-25.103-10.107-5.638zm114.936 1.644l-8.334 4.591-19.245 16.006a405.26 405.26 0 0111.198 13.177l13.568-24.746 2.813-9.028zm-9.091 42.919c4.923 6.299 9.722 12.667 14.478 19.025.07.095.136.191.198.29.597.934 1.205 1.865 1.818 2.795l46.702-9.237 17.04-4.934-16.883-3.803-63.353-4.136z" fill="currentColor"/><path d="M62.928 95.043c-5.45-10.938-8.726-22.848-11.397-34.686.15-7.207-.435-15.583 5.163-21.039 4.896-5.425 13.1-5.775 19.904-4.557 6.873 1.052 12.925 5.084 19.29 7.712 14.677 9.277 28.018 20.46 41.38 31.472 12.534 11.733 24.61 23.917 35.786 36.949 12.73 13.961 24.187 29.016 35.484 44.121 6.846 10.71 14.63 20.88 20.965 31.876 6.874 14.55 15.172 28.471 20.09 43.857 2.521 6.673 3.764 13.9 4.35 20.969.953 8.503-3.094 18.515-11.991 20.97-8.395 2.32-17.15-.592-24.774-4.134-18.803-8.86-34.744-22.463-50.384-35.88-1.756-3.408-.733-9.423 4.247-8.186 11.444 9.133 23.557 17.529 36.25 24.831 6.458 3.16 14.121 7.519 21.348 4.712 6.343-3.876 4.626-12.61 3.657-18.803-2.415-10.294-6.682-20.122-11.095-29.703-18.01-35.114-42.006-66.86-68.438-96.114-13.163-14.193-27.456-27.493-42.994-39.09-8.858-5.435-17.658-11.897-27.934-14.193-5.07-1.201-12.504-1.541-14.177 4.707-2.666 9.573.071 19.49 2.907 28.728 1.444 3.284 1.963 8.29-2.381 9.477-2.476.252-4.621-1.722-5.256-3.996z" fill="currentColor"/></svg>